# xmcd
#
# Track frame offsets: 
#        182
#        13457
#        25432
#        42557
#        53970
#        70207
#        82132
#        95857
#        112682
#        124407
#        136257
#        147932
#        161207
#        174607
#        186970
#        204032
#        217632
#        232832
#        244095
#        257582
#        270132
#        284357
#        301207
#
# Disc length: 4205 seconds
#
# Revision: 1
# Processed by: cddbd v1.5.2PL0 Copyright (c) Steve Scherf et al.
# Submitted via: ExactAudioCopy v1.0b1
#
DISCID=4c106b17
DTITLE=Bobby Jasper - Bobby Jasper and His Modern Jazz
DYEAR=1955
DGENRE=Jazz
TTITLE0=A Foggy Day in London Town
TTITLE1=Coraline
TTITLE2=Blossom
TTITLE3=Paradox 1
TTITLE4=Mad about the Boys
TTITLE5=Kabasoutra
TTITLE6=Sweet and lovely
TTITLE7=Awévalet
TTITLE8=You took Avantage of me
TTITLE9=Easy to love
TTITLE10=Sanguine
TTITLE11=Jeuix de Quartes
TTITLE12=Horn Pipe
TTITLE13=More than you know
TTITLE14=Early wake
TTITLE15=Honkys tonky
TTITLE16=There`s a small hotel
TTITLE17=Nory`s Kick
TTITLE18=All The Things You Are
TTITLE19=Hickueru
TTITLE20=Too Marelous for Words
TTITLE21=There`s a Small Hote l- alternate take previousla unreleased
TTITLE22=All The Things You Are - alternate take previousla unreleased
EXTD=YEAR: 1955
EXTT0=
EXTT1=
EXTT2=
EXTT3=
EXTT4=
EXTT5=
EXTT6=
EXTT7=
EXTT8=
EXTT9=
EXTT10=
EXTT11=
EXTT12=
EXTT13=
EXTT14=
EXTT15=
EXTT16=
EXTT17=
EXTT18=
EXTT19=
EXTT20=
EXTT21=
EXTT22=
PLAYORDER=
